<svg width="1920" height="1688" viewBox="0 0 1920 1688" fill="none" xmlns="http://www.w3.org/2000/svg">
<path d="M1560 1430.68C1683.52 1430.68 1932.61 1546.82 1928 1687.5" stroke="black" stroke-width="1.5"/>
<path d="M361 250.655H701C840.833 257.155 1124.9 314.755 1142.5 493.155C1160.1 671.555 1247.5 654.025 1311.5 654.525H1571" stroke="black" stroke-width="1.5"/>
<path d="M1571 655.155C1603 684.989 1663.5 775.255 1649.5 897.655C1632 1050.66 1461 1133.66 1304 1138.16C1178.4 1141.76 881.667 1091.66 749 1066.16" stroke="black" stroke-width="1.5"/>
<path d="M749.5 1066.16H366.5C317 1073.99 135.5 1066.16 135.5 1283.66C135.5 1402.16 821.937 1745.71 1033 1604.5C1244.5 1463 1234 1431 1336 1431H1563" stroke="black" stroke-width="1.5"/>
<path d="M363 251.235C270 251.235 73.9 223.555 -8.5 1.15527" stroke="black" stroke-width="1.5"/>
</svg>
